<svg height="307.586" viewBox="0 0 1153.0014 288.36256" width="325.4mm" xmlns="http://www.w3.org/2000/svg"><g transform="translate(659.5 71.967)"><circle cx="-515.32" cy="72.214" fill="#69ab90" r="144.18"/><circle cx="-515.13" cy="72.402" fill="#4a856d" r="96.804"/><path d="m-278.88 51.115c0 4.956-.184 9.545-1.836 12.299-2.202 3.855-6.424 4.405-10.647 4.405h-8.26v-74.525h8.26c4.222 0 8.444.55 10.647 4.405 1.653 2.937 1.836 7.526 1.836 12.299v41.118zm22.578-36.162c0-6.057 0-12.299-1.101-17.806-1.285-6.975-4.222-12.115-8.444-15.97-8.628-7.71-23.496-7.343-24.964-7.343h-31.206v113.44h30.104c5.14 0 10.096-.183 14.5-1.284 4.223-1.102 8.077-2.937 11.198-5.507 4.222-3.488 7.342-8.995 8.81-16.521 1.102-5.507 1.102-11.748 1.102-17.622v-31.39zm33.652 23.312c0-3.855.184-8.444 1.836-11.564 1.468-2.386 3.67-4.222 7.526-4.222 4.405 0 6.791 2.02 8.076 4.956s1.285 7.343 1.285 10.83zm-20.375 13.767c0 12.666 2.02 22.395 8.077 28.636 4.772 4.773 11.564 7.526 22.395 7.526 4.405.184 9.545-.55 13.767-1.836 3.67-.917 7.159-2.386 10.647-4.222l-4.59-16.337c-4.038 1.285-7.893 2.754-11.931 3.488-2.387.55-4.957.734-7.71.734-4.038-.183-7.159-1.835-8.627-4.589-1.469-3.304-1.652-7.526-1.652-11.014h37.08c0-6.424.55-14.685 0-22.762-.551-7.158-2.387-13.033-5.69-17.622-4.59-6.057-11.565-9.728-21.66-9.728-8.628 0-15.42 2.753-20.009 7.159-7.71 7.526-10.096 19.64-10.096 32.674v7.893zm69.195.184c0 9.912.918 21.66 8.26 28.636 6.058 6.058 14.501 7.343 22.578 7.343 7.16 0 15.052-1.469 21.11-4.773l-3.67-16.704c-3.856 1.101-5.875 1.836-9.546 2.386-3.12.55-4.039.734-7.343.734-4.956-.183-8.076-2.386-9.545-5.506-1.285-2.387-1.468-5.507-1.468-9.179v-17.622c0-4.405.367-8.443 2.386-11.197 1.468-2.202 3.855-3.304 7.71-3.487 5.506-.184 12.115 1.468 17.07 3.12l3.488-17.255c-2.386-1.101-6.608-2.57-10.096-3.304a50.663 50.663 0 0 0 -10.463-1.101c-9.361.183-18.54 2.57-24.414 10.647-6.057 8.26-6.057 19.274-6.057 29.186v8.077zm80.966-13.951c0-3.855.184-8.444 1.836-11.564 1.468-2.386 3.67-4.222 7.526-4.222 4.405 0 6.791 2.02 8.076 4.956s1.285 7.343 1.285 10.83zm-20.375 13.767c0 12.666 2.02 22.395 8.077 28.636 4.772 4.773 11.564 7.526 22.395 7.526 4.405.184 9.545-.55 13.767-1.836 3.67-.917 7.159-2.386 10.647-4.222l-4.59-16.337c-4.038 1.285-7.893 2.754-11.931 3.488-2.387.55-4.957.734-7.71.734-4.038-.183-7.159-1.835-8.627-4.589-1.469-3.304-1.652-7.526-1.652-11.014h37.08c0-6.424.55-14.685 0-22.762-.551-7.158-2.387-13.033-5.69-17.622-4.59-6.057-11.565-9.728-21.66-9.728-8.628 0-15.42 2.753-20.009 7.159-7.71 7.526-10.096 19.64-10.096 32.674v7.893zm91.589 35.244v-63.696c1.652-.55 4.405-.918 7.526-.918 4.59 0 7.342 1.469 8.811 4.039 2.203 3.67 1.836 11.748 1.836 16.704v43.87h20.375v-50.48c0-11.563-1.102-19.824-6.792-25.698-4.038-4.221-11.014-6.608-20.56-6.791-7.892 0-18.722 1.101-31.205 4.772v78.197h20.008zm58.043-32.674c0 9.362-.367 21.293 6.608 28.452 4.222 4.405 10.463 5.874 17.255 5.69 5.69 0 11.564-1.652 16.704-4.405l-4.222-16.703c-2.386.918-6.425 2.753-9.729 2.57-6.424-.551-6.24-10.646-6.24-15.236v-31.022h16.151v-17.622h-16.152v-18.54h-20.375v18.54h-9.545v17.622h9.545v30.655zm71.737 32.674v-63.329c2.203-.734 4.405-1.101 6.425-1.101 1.468 0 4.038 0 6.424.55l2.57-18.355c-4.4-.734-8.44-.918-12.48-.734-7.71.183-15.785 1.652-22.944 4.589v78.38h20.008zm52.16-18.356c-2.937 1.285-6.425 2.57-8.995 1.285-1.284-.734-2.386-2.203-2.386-4.773v-1.285c0-3.12 1.102-5.14 2.57-6.424 1.652-1.469 4.038-2.203 6.608-3.12l8.628-2.754v13.95zm26.433-27.167c0-10.096-.55-20.559-5.874-27.901-2.203-3.12-5.507-5.69-9.912-7.343-4.222-1.652-8.995-2.202-13.767-2.202-4.039 0-8.628.55-13.033 1.468-3.488.735-6.792 1.652-9.546 2.937l3.672 17.622c2.57-.734 5.507-1.652 8.443-2.202 3.121-.735 6.242-.918 8.995-.918 3.671.183 6.608 1.101 8.077 2.753 2.753 2.937 2.937 6.608 2.937 10.463l-18.356 4.956c-6.241 1.469-11.197 4.222-14.318 8.077-3.121 3.671-4.773 8.627-4.773 15.236v2.937c0 5.507 1.285 11.381 4.956 15.42 2.754 2.936 6.425 4.588 11.564 4.955 4.039.367 8.077-.367 11.748-1.835 3.12-1.285 6.058-2.937 9.178-4.59l.367 5.691h19.641v-45.523zm35.777-67.918h-20.008v113.44h20.008z" fill="#575757"/><path d="m257.04 38.265c0-3.855.184-8.444 1.836-11.564 1.468-2.386 3.67-4.222 7.526-4.222 4.405 0 6.791 2.02 8.076 4.956s1.285 7.343 1.285 10.83zm-20.375 13.767c0 12.666 2.02 22.395 8.077 28.636 4.772 4.773 11.564 7.526 22.395 7.526 4.405.184 9.545-.55 13.767-1.836 3.67-.917 7.159-2.386 10.647-4.222l-4.591-16.336c-4.038 1.285-7.893 2.754-11.931 3.488-2.387.55-4.956.734-7.71.734-4.038-.183-7.159-1.835-8.627-4.589-1.469-3.304-1.652-7.526-1.652-11.014h37.08c0-6.424.55-14.685 0-22.762-.551-7.158-2.387-13.033-5.69-17.622-4.59-6.057-11.565-9.728-21.66-9.728-8.628 0-15.42 2.753-20.009 7.159-7.71 7.526-10.096 19.64-10.096 32.674v7.893zm129.955-41.117v-5.507h-20.008l-11.014 46.992-13.216-46.992h-20.559v4.59l23.496 69.57c-1.652 6.975-6.425 16.887-17.622 16.887l1.468 17.622c3.672.734 7.71.734 11.197 0 16.521-3.488 21.11-20.192 25.332-34.326zm26.3 27.35c0-3.855.184-8.444 1.836-11.564 1.468-2.386 3.67-4.222 7.526-4.222 4.405 0 6.791 2.02 8.076 4.956s1.285 7.343 1.285 10.83zm-20.375 13.767c0 12.666 2.02 22.395 8.077 28.636 4.772 4.773 11.564 7.526 22.395 7.526 4.405.184 9.545-.55 13.767-1.836 3.67-.917 7.159-2.386 10.647-4.222l-4.591-16.336c-4.038 1.285-7.893 2.754-11.931 3.488-2.387.55-4.957.734-7.71.734-4.038-.183-7.159-1.835-8.627-4.589-1.469-3.304-1.652-7.526-1.652-11.014h37.08c0-6.424.55-14.685 0-22.762-.551-7.158-2.387-13.033-5.69-17.622-4.59-6.057-11.565-9.728-21.66-9.728-8.628 0-15.42 2.753-20.009 7.159-7.71 7.526-10.096 19.64-10.096 32.674v7.893zm120.955 11.565c0-9.912-4.038-16.521-12.666-20.559-4.222-1.836-8.995-3.855-12.666-5.507-2.386-1.101-4.59-2.386-6.241-4.222-1.102-1.468-1.836-3.12-1.652-5.323.367-4.222 3.855-6.241 8.26-6.241 5.507 0 10.83 1.652 16.704 3.12l3.488-16.153c-2.937-1.285-6.058-2.202-9.729-3.12-3.855-.734-8.077-1.285-12.482-1.285-5.69 0-10.463 1.101-14.318 3.12-7.526 3.855-11.197 11.381-11.564 19.641-.367 9.546 3.488 16.704 11.564 22.027 5.507 3.488 11.748 5.875 17.071 8.812 2.386 1.468 4.589 3.487 4.222 6.608 0 4.222-4.038 6.424-8.077 6.424-2.386.184-4.772-.183-6.975-.55-4.59-.735-8.628-2.02-13.216-3.12l-3.488 15.97c2.57 1.284 6.058 2.385 9.178 3.303 4.59 1.102 8.628 1.652 13.951 1.652 8.995 0 16.521-2.202 21.477-6.975 4.406-4.038 6.976-9.545 7.16-17.622z" fill="#575757"/><path d="m-293.2 165.42v-9.763h-17.04v-47.16h-11.237v56.923zm18.36-8.47c-3.869 0-4.513-3.224-4.513-6.54v-11.237c0-3.223.829-6.263 4.513-6.263h.553c3.684 0 4.513 3.04 4.513 6.263v11.237c0 3.316-.645 6.54-4.513 6.54zm-14.553-8.197c0 4.144.46 8.658 2.947 12.066 2.303 3.223 6.08 5.065 11.882 5.065 5.803 0 9.58-1.934 11.882-5.25 2.487-3.315 2.948-7.92 2.948-11.974v-7.829c0-4.052-.46-8.566-2.948-11.974-2.302-3.316-6.079-5.066-11.882-5.066-5.802 0-9.579 1.935-11.882 5.158-2.486 3.408-2.947 7.921-2.947 12.066v7.737zm35.623-.923c0 4.974.46 10.869 4.145 14.369 3.04 3.04 7.276 3.684 11.329 3.684 3.592 0 7.553-.737 10.592-2.394l-1.842-8.382c-1.934.552-2.948.92-4.79 1.197-1.566.277-2.026.369-3.684.369-2.487-.092-4.053-1.198-4.79-2.764-.645-1.197-.737-2.763-.737-4.605v-8.842c0-2.21.185-4.237 1.198-5.619.737-1.105 1.934-1.658 3.868-1.75 2.763-.092 6.08.737 8.566 1.566l1.75-8.658c-1.197-.553-3.316-1.29-5.066-1.658s-3.5-.553-5.25-.553c-4.697.092-9.303 1.29-12.25 5.343-3.04 4.144-3.04 9.67-3.04 14.645v4.052zm45.32 8.38c-1.474.645-3.224 1.29-4.513.645-.645-.369-1.198-1.106-1.198-2.395v-.645c0-1.566.553-2.579 1.29-3.223.829-.737 2.026-1.106 3.316-1.566l4.329-1.382v7zm13.263-13.632c0-5.066-.276-10.316-2.947-14-1.106-1.566-2.764-2.855-4.974-3.684-2.119-.83-4.513-1.106-6.908-1.106-2.027 0-4.33.277-6.54.737-1.75.369-3.408.83-4.79 1.474l1.843 8.842c1.29-.368 2.763-.829 4.237-1.105 1.565-.368 3.131-.46 4.513-.46 1.842.092 3.316.552 4.052 1.381 1.382 1.474 1.474 3.316 1.474 5.25l-9.21 2.487c-3.132.737-5.619 2.119-7.185 4.053-1.566 1.842-2.395 4.329-2.395 7.645v1.473c0 2.764.645 5.71 2.487 7.737 1.382 1.474 3.224 2.303 5.803 2.487 2.026.184 4.053-.184 5.895-.92 1.566-.646 3.04-1.475 4.605-2.304l.184 2.856h9.856zm17.957-34.078h-10.04v56.922h10.04zm32.67 37.31c0 4.882.276 10.869 3.224 14.737 1.474 1.934 3.592 3.224 5.803 4.053 2.763 1.013 5.71 1.29 8.565 1.29 2.395 0 4.79-.185 7.37-.738 1.841-.46 3.591-1.013 5.25-1.75l-1.935-8.934c-1.658.46-4.237 1.197-6.263 1.474-1.29.184-2.763.368-4.145.276-2.855-.184-4.513-1.197-5.434-2.763-1.014-1.75-1.198-4.421-1.198-7.092v-19.895c0-2.395.184-4.698 1.013-6.172 1.014-1.934 3.132-2.579 5.25-2.579 1.382 0 3.04.277 4.33.553 1.842.368 3.776.829 5.526 1.197l2.026-9.118c-3.131-1.382-7.645-2.303-11.974-2.303-5.066 0-9.579 1.29-12.619 3.96-2.118 1.935-3.592 4.514-4.329 8.014-.46 2.763-.46 5.895-.46 8.934zm57.367 1.47c0 2.487-.092 4.79-.921 6.171-1.105 1.934-3.224 2.21-5.342 2.21h-4.145v-37.394h4.145c2.118 0 4.237.276 5.342 2.21.829 1.474.921 3.777.921 6.172v20.632zm11.329-18.145c0-3.04 0-6.171-.553-8.934-.644-3.5-2.118-6.08-4.237-8.014-4.329-3.868-11.79-3.684-12.527-3.684h-15.658v56.922h15.106c2.58 0 5.066-.092 7.277-.645 2.118-.552 4.053-1.473 5.618-2.763 2.119-1.75 3.685-4.513 4.421-8.29.553-2.763.553-5.894.553-8.842zm32.547 5.155c0 2.487.092 4.882.276 7.276h-.184c-.829-2.302-1.934-4.973-2.855-6.816l-12.62-26.25h-9.302v56.922h10.684v-26.066a91.26 91.26 0 0 0 -.276-7.092h.184c.921 2.856 2.21 5.803 3.131 7.645l12.25 25.514h9.303v-56.922h-10.592v25.79zm43.676-25.79v56.922h30.764v-9.763h-19.527v-13.909h15.474v-9.764h-15.474v-13.724h19.527v-9.762zm47.278 56.92v-32.053c.829-.276 2.303-.553 3.5-.46 2.027 0 3.132.644 3.684 1.75.83 1.657.645 4.144.645 6.355v24.408h10.132v-23.948c0-2.21 0-5.527-.46-7.921.92-.369 2.487-.645 3.684-.645 2.21 0 3.316.645 3.96 1.75.737 1.29.737 3.132.737 5.25v25.514h10.224v-25.329c0-5.158-.552-9.119-2.947-11.974-2.487-2.947-6.171-3.96-9.948-4.053-2.67 0-5.434.46-7.92 1.29-.646.184-1.475.552-1.843.829-.46-.369-1.105-.737-1.658-.921-2.763-1.198-5.895-1.566-9.118-1.566-3.777.092-9.119 1.105-12.711 2.579v39.145h10.04zm63.623-41.07v29.843l-3.5 1.842c-1.382.645-3.224 1.29-4.421.645-.645-.369-1.198-1.105-1.198-2.395v-29.935h-10.04v31.04c0 2.763.46 5.342 1.75 7.184 1.29 1.935 3.5 3.132 6.54 3.316 2.026.184 4.237-.276 5.987-1.013 1.842-.645 3.5-1.658 5.158-2.487l.184 3.04h9.58v-41.08zm28.3-15.85h-10.04v56.922h10.04zm22.04 47.71c-1.474.645-3.224 1.29-4.513.645-.645-.369-1.198-1.106-1.198-2.395v-.645c0-1.566.553-2.579 1.29-3.223.829-.737 2.026-1.106 3.316-1.566l4.329-1.382v7zm13.263-13.632c0-5.066-.276-10.316-2.947-14-1.106-1.566-2.764-2.855-4.974-3.684-2.119-.83-4.513-1.106-6.908-1.106-2.027 0-4.33.277-6.54.737-1.75.369-3.408.83-4.79 1.474l1.843 8.842c1.29-.368 2.763-.829 4.237-1.105 1.565-.368 3.131-.46 4.513-.46 1.842.092 3.316.552 4.052 1.381 1.382 1.474 1.474 3.316 1.474 5.25l-9.21 2.487c-3.132.737-5.619 2.119-7.185 4.053-1.566 1.842-2.395 4.329-2.395 7.645v1.473c0 2.764.645 5.71 2.487 7.737 1.382 1.474 3.224 2.303 5.803 2.487 2.026.184 4.053-.184 5.895-.92 1.566-.646 3.04-1.475 4.605-2.304l.184 2.856h9.856zm9.477 6.452c0 4.697-.184 10.684 3.316 14.277 2.118 2.21 5.25 2.947 8.658 2.855 2.855 0 5.802-.829 8.381-2.21l-2.118-8.382c-1.197.46-3.224 1.382-4.882 1.29-3.223-.277-3.131-5.343-3.131-7.645v-15.566h8.105v-8.843h-8.105v-9.303h-10.224v9.303h-4.79v8.843h4.79v15.382zm36.64-40.53h-10.684v10.408h10.684zm-.368 15.842h-9.948v41.08h9.948zm21.928 32.608c-3.869 0-4.513-3.224-4.513-6.54v-11.237c0-3.223.829-6.263 4.513-6.263h.553c3.684 0 4.513 3.04 4.513 6.263v11.237c0 3.316-.645 6.54-4.513 6.54zm-14.553-8.197c0 4.144.46 8.658 2.947 12.066 2.303 3.223 6.08 5.065 11.882 5.065 5.803 0 9.58-1.934 11.882-5.25 2.487-3.315 2.948-7.92 2.948-11.974v-7.829c0-4.052-.46-8.566-2.948-11.974-2.302-3.316-6.079-5.066-11.882-5.066-5.802 0-9.579 1.935-11.882 5.158-2.486 3.408-2.947 7.921-2.947 12.066v7.737zm46.863 16.667v-31.961c.829-.276 2.21-.46 3.776-.46 2.303 0 3.685.736 4.422 2.026 1.105 1.842.92 5.895.92 8.382v22.014h10.225v-25.33c0-5.802-.553-9.947-3.408-12.894-2.027-2.119-5.527-3.316-10.316-3.408-3.961 0-9.395.552-15.658 2.394v39.238h10.04z" fill="#69ab90"/><circle cx="-515.32" cy="72.214" fill="#d9ccb5" r="85.491"/><path d="m-514.62-60.244c-35.857-.214-69.613 13.549-95.287 39.223-21.726 21.726-34.785 48.725-38.356 79.299-1.51 12.924-1.15 18.559 1.45 22.765 2.592 4.193 7.715 7.094 12.529 7.094 2.224 0 4.367-.59 6.86-1.893 2.61-1.364 4.184-2.796 5.618-5.115 1.79-2.895 2.048-4.058 2.564-11.494 1.078-15.547 3.642-26.467 9.022-38.438 5.532-12.308 11.942-21.608 21.432-31.099 15.368-15.367 34.084-25.098 55.841-29.031 7.716-1.395 24.814-1.54 33.687-.285 7.756 1.097 10.134.768 14.301-1.992 5.802-3.843 8.143-11.751 5.302-17.917-3.031-6.581-7.131-8.719-19.484-10.163a140.428 140.428 0 0 0 -15.479-.953zm109.93 74.51c-8.198-.038-14.914 6.528-14.914 14.576 0 11.147 10.954 18.298 20.867 13.623 4-1.887 5.963-3.86 7.502-7.544 4.046-9.683-3.07-20.608-13.456-20.655zm-14.971 113.33c-4.075.065-7.333 2.02-11.055 6.348-9.198 10.697-11.412 13.066-15.958 17.08-13.705 12.095-31.307 20.6-50.351 24.324-9.345 1.828-28.844 1.638-38.299-.373-19.891-4.23-35.81-12.389-51.031-26.152-7.82-7.07-10.345-8.495-15.06-8.495-8.227 0-14.524 6.385-14.559 14.764-.026 6.333 1.762 9.045 11.94 18.107 19.95 17.762 46.738 29.723 73.456 32.798 7.393.85 22.091.87 29.682.04 24.156-2.641 47.493-11.922 66.845-26.582 6.457-4.892 19.763-18.022 24.347-24.025 5.585-7.314 6.792-11.417 5.135-17.474-1.104-4.033-6.237-8.74-10.697-9.81-1.588-.381-3.037-.571-4.396-.55z" fill="#e1eee9" fill-rule="evenodd"/></g><path d="m260.68 163.578c-2.281-.1-3.476 1.645-4.709 6.266-.726 2.321-.813 3.413-1.588 5.713l-1.133 3.4-2.22-.783-2.221-.782.482 3.149c1.253 8.166 2.73 16.622 2.893 16.553 1.735-1.4 8.01-6.652 15.238-12.561 0 0-1.2-.431-2.537-.914l-2.315-.9 1.217-3.717c.67-2.045 1.503-5.601 1.854-7.905.1-.658.149-1.159.197-1.662.138-3.332-.883-4.714-3.39-5.506-.657-.207-1.242-.328-1.768-.351zm-45.55-112.74c-1.582 1.647-3.65 1.208-7.731-1.287-2.128-1.18-2.944-1.91-5.091-3.04l-3.166-1.68-1.068 2.1-1.068 2.097-1.823-2.612c-4.727-6.776-9.491-13.916-9.326-13.978 2.222-.184 10.389-.712 19.697-1.42l-1.206 2.411-1.054 2.249 3.445 1.85c1.895 1.02 4.952 3.019 6.795 4.444.526.407.907.736 1.29 1.067 2.398 2.317 2.612 4.022 1.343 6.325-.331.603-.671 1.094-1.037 1.474zm11.69 4.174c-.926.112-1.764.618-2.596 1.467-2.533 2.583-1.789 5.05 3.186 10.545a852.203 852.203 0 0 1 7.9 8.855c3.754 4.293 5.591 4.826 8.158 2.367 2.858-2.736 2.158-5.057-3.691-12.245-6.605-8.117-10.178-11.325-12.957-10.989zm31.91 92.11c-.173-2.81-.554-8.137-.846-11.837-.583-7.39.334-9.798 3.917-10.296 4.709-.654 6.138 3.092 6.5 17.04.242 9.265-.62 11.529-4.556 11.95-3.534.379-4.664-1.166-5.015-6.857z" fill="#fff"/><path d="m206.49 136.961c-2.11-.019-4.362 1.295-7.703 4.248-10.175 8.993-21.922 15.327-34.545 18.627-8.938 2.337-24.56 2.935-33.938 1.303-14.797-2.576-26.79-8.37-39.924-19.29-4.784-3.977-6.134-4.761-8.188-4.761-3.518 0-6.023 2.633-6.023 6.332 0 2.525.386 3.137 4.393 6.97 2.416 2.312 6.445 5.639 8.955 7.395 2.51 1.757 4.807 3.4 5.105 3.652.299.253.179 1.95-.267 3.772-1.474 6.017-4.278 10.442-7.694 12.551-1.126.768-2.264 1.268-3.32 1.383-6.536.707-9.396 4.312-7.293 9.195 1.67 3.878 6.616 4.794 12.03 2.988a21.422 21.422 0 0 0 2.926-1.23c.052-.026.102-.048.153-.074a26.679 26.679 0 0 0 5.227-3.596c.14-.125.28-.258.422-.39.204-.186.404-.382.605-.575 1.714-1.733 3.433-3.947 4.893-6.24.206-.324.393-.65.587-.975.108-.183.224-.362.329-.547 1.525-2.69 2.717-5.434 3.11-7.402.234-1.163.673-2.115.976-2.115s2.622.747 5.154 1.66c6.144 2.216 14.829 4.25 20.553 4.815l4.668.459v11.014c0 10.802.033 11.054 1.713 13.05.942 1.12 2.387 2.138 3.21 2.262 2.7.407 4.528-.267 6.237-2.299 1.641-1.95 1.684-2.265 1.684-13.004v-11.004l4.81-.447c6.003-.558 16.571-3.14 22.189-5.424 2.345-.952 4.49-1.592 4.766-1.421.276.17.687 1.457.914 2.859.75 4.645 4.94 12.24 8.863 16.07 7.226 7.055 16.814 8.487 19.682 2.941 2.429-4.697-.155-8.474-6.59-9.634-2.868-.518-6.167-3.865-8.027-8.145-1.57-3.612-2.947-10.521-2.227-11.172.314-.283 2.531-1.923 4.928-3.644 6.261-4.496 12.034-10.285 12.537-12.574.498-2.266-1.029-5.705-3-6.76-.99-.53-1.921-.814-2.88-.823z" fill="#2a4c3d"/></svg>